<?xml version="1.0" ?><svg viewBox="0 0 345.96 390.62" xmlns="http://www.w3.org/2000/svg"><defs><style>.cls-1{fill:none;stroke:#ffffff;stroke-miterlimit:10;stroke-width:10px;}</style></defs><title/><g data-name="Layer 2" id="Layer_2"><g data-name="Layer 1" id="Layer_1-2"><path class="cls-1" d="M265.46,284c-27.19-67.22-34.85-163.8-34.85-163.8H113.28S105.6,216.79,78.38,284"/><path class="cls-1" d="M196.31,284H64.42a20.27,20.27,0,0,0-20.27,20.27V347.9H299.72V304.28A20.27,20.27,0,0,0,279.45,284H218"/><path class="cls-1" d="M241.39,12.31V62.8a12.51,12.51,0,0,1-12.51,12.51h-22A12.51,12.51,0,0,1,194.37,62.8V12.31A7.31,7.31,0,0,0,187.06,5H156.78a7.31,7.31,0,0,0-7.31,7.31V62.8A12.51,12.51,0,0,1,137,75.31H115A12.51,12.51,0,0,1,102.45,62.8V12.31A7.31,7.31,0,0,0,95.14,5H64.86a7.31,7.31,0,0,0-7.31,7.31v63h0a44.9,44.9,0,0,0,44.9,44.9H241.39a44.9,44.9,0,0,0,44.9-44.9h0v-63A7.31,7.31,0,0,0,279,5H248.7A7.31,7.31,0,0,0,241.39,12.31Z"/><path class="cls-1" d="M68.38,385.62H341a37.72,37.72,0,0,0-37.72-37.72H42.72A37.73,37.73,0,0,0,5,385.62H46.71"/><path class="cls-1" d="M90.65,309h-20a3.33,3.33,0,0,0-3.33,3.33v15.33"/></g></g></svg>